Coordinates
version=1
nRows=6
nColumns=63
inDegrees=yes

Units are S.I. units (second, meters, Newtons, ...)
If the header above contains a line with 'inDegrees', this indicates whether rotational values are in degrees (yes) or radians (no).

endheader
time	pelvis_tilt	pelvis_list	pelvis_rotation	pelvis_tx	pelvis_ty	pelvis_tz	hip_flexion_r	hip_adduction_r	hip_rotation_r	knee_angle_r	knee_angle_r_beta	ankle_angle_r	subtalar_angle_r	mtp_angle_r	hip_flexion_l	hip_adduction_l	hip_rotation_l	knee_angle_l	knee_angle_l_beta	ankle_angle_l	subtalar_angle_l	mtp_angle_l	L5_S1_Flex_Ext	L5_S1_Lat_Bending	L5_S1_axial_rotation	L4_L5_Flex_Ext	L4_L5_Lat_Bending	L4_L5_axial_rotation	L3_L4_Flex_Ext	L3_L4_Lat_Bending	L3_L4_axial_rotation	L2_L3_Flex_Ext	L2_L3_Lat_Bending	L2_L3_axial_rotation	L1_L2_Flex_Ext	L1_L2_Lat_Bending	L1_L2_axial_rotation	L1_T12_Flex_Ext	L1_T12_Lat_Bending	L1_T12_axial_rotation	Abs_r3	Abs_r2	Abs_r1	Abs_t1	Abs_t2	neck_flexion	neck_bending	neck_rotation	arm_flex_r	arm_add_r	arm_rot_r	elbow_flex_r	pro_sup_r	wrist_flex_r	wrist_dev_r	arm_flex_l	arm_add_l	arm_rot_l	elbow_flex_l	pro_sup_l	wrist_flex_l	wrist_dev_l
      2.44897959	     -4.06993069	     12.22624544	     79.48948899	      0.24342743	      0.78544146	      0.75883506	     -4.98187429	      2.95950394	     16.82015738	     20.40230850	      0.35608746	     28.50561530	    -15.31172888	      0.00000000	     -5.72107146	      0.82628070	     -0.37329441	     17.44783158	      0.30452211	     34.52329423	    -15.70088287	      0.00000000	     -0.04411889	     -0.29732971	     -0.84518822	     -0.08193319	     -0.39544852	     -0.89801248	     -0.07248293	     -0.72292747	     -0.89801248	     -0.05042348	     -0.72292747	     -0.73953969	     -0.04096880	     -0.60631475	     -0.68671543	     -0.02520953	     -0.46056373	     -0.63389116	     -0.31513683	     -3.36345319	     -4.70068331	      0.00000000	      0.00000000	     -5.97001183	     -2.35059629	      3.11238565	     16.73123017	    -11.32228326	     -4.71656680	    107.59951671	     80.25476538	     -9.28062706	     -6.64356702	     62.45120734	     -3.74634337	     48.42601669	     43.86862861	     25.98658044	     -1.58258557	     -5.99644323
      2.46938776	     -3.87879026	     12.55554404	     79.13003798	      0.24218930	      0.78644953	      0.75942666	     -5.36968209	      2.92967969	     17.33161960	     20.20369203	      0.35262095	     28.34664308	    -15.49103803	      0.00000000	     -5.97258907	      0.81629196	     -0.69757881	     17.71606546	      0.30920367	     34.75288982	    -15.72211978	      0.00000000	     -0.08851558	     -0.24807188	     -0.73928584	     -0.16438229	     -0.32993560	     -0.78549121	     -0.14542225	     -0.60316198	     -0.78549121	     -0.10116446	     -0.60316198	     -0.64687511	     -0.08219557	     -0.50586818	     -0.60066975	     -0.05057780	     -0.38426335	     -0.55446438	     -0.63225795	     -2.80623875	     -4.11168608	      0.00000000	      0.00000000	     -6.75971260	     -2.89044092	      4.48323842	     18.26927590	    -11.32279127	     -2.65850170	    105.29337814	     81.07504567	     -9.33175681	    -11.25480783	     62.77872824	     -4.48026949	     47.39004117	     44.16784988	     29.67799894	     -0.61217589	     -6.16177349
      2.48979592	     -3.51049365	     12.62524983	     79.06210074	      0.23997116	      0.78742445	      0.75929991	     -5.60489352	      3.11344040	     17.52287006	     19.88280212	      0.34702036	     28.14611169	    -15.69467615	      0.00000000	     -6.06830388	      0.60391608	     -0.66015355	     17.85288189	      0.31159157	     34.82816057	    -15.79396611	      0.00000000	     -0.10724597	     -0.17766223	     -0.61897734	     -0.19916649	     -0.23629077	     -0.65766342	     -0.17619440	     -0.43196795	     -0.65766342	     -0.12257142	     -0.43196795	     -0.54160517	     -0.09958861	     -0.36228882	     -0.50291909	     -0.06128035	     -0.27519879	     -0.46423300	     -0.76604724	     -2.00975068	     -3.44256625	      0.00000000	      0.00000000	     -7.42782957	     -3.22173093	      4.56595871	     19.45370407	    -11.71012905	     -1.41990204	    104.31868849	     82.24601881	     -8.17694452	    -10.18666607	     61.54916749	     -4.34091619	     41.31592224	     45.56418434	     43.04118863	     -0.35789542	     -2.75141737
      2.51020408	     -3.13582627	     12.65825062	     79.11819460	      0.23743951	      0.78846514	      0.75892618	     -5.78174526	      3.33000931	     17.69909689	     19.62105277	      0.34245197	     28.04351234	    -15.83708544	      0.00000000	     -6.18414389	      0.38480496	     -0.48267942	     17.86804255	      0.31185617	     34.70838093	    -15.90795933	      0.00000000	     -0.11978586	     -0.10340708	     -0.48149515	     -0.22245433	     -0.13753141	     -0.51158860	     -0.19679620	     -0.25142397	     -0.51158860	     -0.13690326	     -0.25142397	     -0.42130825	     -0.11123315	     -0.21086771	     -0.39121481	     -0.06844564	     -0.16017756	     -0.36112136	     -0.85561845	     -1.16976153	     -2.67793157	      0.00000000	      0.00000000	     -8.15085046	     -3.41554844	      4.63984400	     20.57168608	    -12.23806392	     -0.35895468	    103.73179450	     83.51703799	     -6.89728448	     -8.12507918	     60.14719045	     -4.35451026	     36.57732572	     47.96560765	     50.27528262	      0.09471766	     -0.06424335
      2.53061224	     -2.77669474	     12.65558538	     79.31988582	      0.23471663	      0.78946411	      0.75820318	     -5.92131563	      3.56887609	     17.85678887	     19.40345699	      0.33865421	     27.98416448	    -15.98330106	      0.00000000	     -6.29119029	      0.15136371	     -0.23342871	     17.79575756	      0.31059456	     34.53676736	    -15.89490434	      0.00000000	     -0.12346051	     -0.02528492	     -0.31347711	     -0.22927852	     -0.03362894	     -0.33306943	     -0.20283328	     -0.06147774	     -0.33306943	     -0.14110302	     -0.06147774	     -0.27429248	     -0.11464543	     -0.05156100	     -0.25470016	     -0.07054534	     -0.03916633	     -0.23510784	     -0.88186610	     -0.28602802	     -1.74346567	      0.00000000	      0.00000000	     -8.70198973	     -3.61447786	      4.55262647	     21.19629057	    -12.81322833	      0.31225907	    104.00515866	     84.38511943	     -6.00482334	     -5.42376389	     58.56890515	     -4.25927535	     32.69806563	     50.75940947	     55.65827165	      0.38580238	      1.79346376
      2.55102041	     -2.46741512	     12.67622245	     79.64723032	      0.23203964	      0.79038121	      0.75720074	     -6.08065444	      3.78794949	     17.98139942	     19.23610083	      0.33573329	     27.97905349	    -16.10829237	      0.00000000	     -6.43627364	     -0.05264177	      0.12036647	     17.65303462	      0.30810358	     34.40413739	    -15.82796476	      0.00000000	     -0.12272459	      0.04769990	     -0.07688077	     -0.22791184	      0.06344087	     -0.08168582	     -0.20162423	      0.11597754	     -0.08168582	     -0.14026193	      0.11597754	     -0.06727067	     -0.11396205	      0.09726964	     -0.06246563	     -0.07012483	      0.07388715	     -0.05766058	     -0.87660948	      0.53959084	     -0.42758778	      0.00000000	      0.00000000	     -8.98240006	     -3.68496792	      4.12591401	     20.94768750	    -13.48836446	      0.45702871	    105.33500161	     84.79749429	     -6.00022732	     -2.69073761	     57.23095919	     -3.90880724	     30.38851015	     53.18952408	     60.24408484	     -0.45835815	      1.47696162
